<svg width="85" height="53" viewBox="0 0 85 53" fill="none" xmlns="http://www.w3.org/2000/svg">
<mask id="path-1-outside-1_1_203" maskUnits="userSpaceOnUse" x="0" y="0" width="85" height="53" fill="black">
<rect fill="white" width="85" height="53"/>
<path d="M83.5268 18.2102L75.1021 3.8836C74.6047 3.0345 73.7516 2.39292 72.7267 2.09707C71.7018 1.80122 70.5871 1.87478 69.6227 2.3019L61.3692 5.9824H55.1363L43.5609 1.32855C42.669 0.965864 41.6598 0.901065 40.7184 1.14605L23.5266 5.58697L15.3759 1.96731C14.4114 1.54019 13.2967 1.46663 12.2718 1.76248C11.2469 2.05833 10.3938 2.69991 9.8964 3.54901L1.47172 17.8756C1.21744 18.3075 1.06228 18.7799 1.01525 19.2656C0.968216 19.7512 1.03025 20.2402 1.19774 20.7044C1.55416 21.6293 2.304 22.3935 3.28679 22.8336L11.643 26.5445L30.2389 39.4718C30.7011 39.7783 31.2238 40.0053 31.78 40.141L51.6089 44.5211C51.9315 44.6043 52.2661 44.6453 52.602 44.6428C53.143 44.6491 53.6799 44.558 54.1802 44.375C54.6805 44.1921 55.1339 43.921 55.513 43.5782L68.1158 32.3846L68.1843 32.3238L73.4925 26.8182L81.7117 23.1682C82.2029 22.9481 82.6402 22.644 82.9987 22.2734C83.3572 21.9028 83.6298 21.4729 83.8008 21.0085C83.9693 20.5497 84.0319 20.0654 83.9848 19.5846C83.9377 19.1037 83.782 18.6363 83.5268 18.2102ZM66.9514 29.8904L52.9103 20.7956C52.6695 20.642 52.379 20.5619 52.0826 20.5674C51.7862 20.5729 51.4998 20.6637 51.2664 20.826L46.8828 23.7461C45.2186 24.8425 43.2015 25.4344 41.1294 25.4344C39.0573 25.4344 37.0402 24.8425 35.3759 23.7461L33.5266 22.499C33.3644 22.3999 33.2304 22.2686 33.1353 22.1154C33.0402 21.9623 32.9866 21.7916 32.9787 21.6169C32.9568 21.442 32.9827 21.2649 33.0543 21.1008C33.1258 20.9366 33.2409 20.7902 33.3896 20.674L46.7801 8.75037C47.0405 8.53496 47.3832 8.41537 47.739 8.41578H60.8555L70.9925 25.6624L66.9514 29.8904ZM3.83474 19.9439C3.76852 19.7918 3.74035 19.6286 3.75217 19.4658C3.764 19.303 3.81554 19.1444 3.90323 19.001L12.3279 4.67445C12.4444 4.47532 12.622 4.3096 12.8402 4.19653C13.0585 4.08347 13.3083 4.0277 13.5608 4.03569C13.7636 4.02907 13.9648 4.0711 14.143 4.15736L21.4718 7.38159L11.78 23.8678L4.51967 20.6435C4.3535 20.5803 4.20557 20.4846 4.08696 20.3634C3.96835 20.2423 3.88212 20.0989 3.83474 19.9439ZM53.5952 41.8444C53.4259 41.9908 53.2186 42.0979 52.9916 42.1563C52.7647 42.2147 52.525 42.2224 52.2938 42.179L32.4307 37.7685C32.2476 37.7228 32.0741 37.6509 31.917 37.5556L14.1087 25.1757L24.2458 7.92911L41.4719 3.48818C41.7889 3.40204 42.1307 3.42373 42.4308 3.54901L48.4924 5.9824H47.739C47.1986 5.97955 46.6629 6.0722 46.1631 6.25497C45.6634 6.43774 45.2095 6.70698 44.828 7.047L31.4376 18.9402C31.0206 19.3103 30.6982 19.7558 30.4923 20.2463C30.2863 20.7369 30.2015 21.2611 30.2437 21.7833C30.286 22.3055 30.4542 22.8136 30.737 23.2729C31.0198 23.7323 31.4106 24.1323 31.8828 24.4457L33.7321 25.6928C35.8728 27.1005 38.4659 27.8603 41.1294 27.8603C43.7929 27.8603 46.386 27.1005 48.5267 25.6928L52.0883 23.2898L65.0678 31.6546L53.5952 41.8444ZM81.1638 20.2785C81.1102 20.4308 81.0216 20.5716 80.9037 20.692C80.7859 20.8124 80.6412 20.9098 80.4789 20.9781L73.2186 24.2024L63.5267 7.71618L70.8555 4.49195C71.1744 4.35194 71.5422 4.32761 71.8809 4.42412C72.2197 4.52062 72.5029 4.73039 72.6706 5.00904L81.0953 19.3356C81.183 19.479 81.2345 19.6375 81.2464 19.8004C81.2582 19.9632 81.23 20.1263 81.1638 20.2785ZM38.3554 50.0571C38.2803 50.3227 38.1087 50.559 37.8673 50.7294C37.6259 50.8998 37.3281 50.9949 37.0198 51L36.6773 50.9392L26.3691 48.6579C25.7357 48.5187 25.1487 48.2476 24.6567 47.867L16.9512 41.9052C16.7901 41.8091 16.6538 41.6838 16.5514 41.5374C16.449 41.391 16.3827 41.2269 16.357 41.0561C16.3314 40.8853 16.3468 40.7115 16.4025 40.5464C16.4581 40.3813 16.5526 40.2285 16.6797 40.0983C16.8068 39.968 16.9636 39.8632 17.1397 39.7909C17.3158 39.7185 17.5072 39.6802 17.7013 39.6785C17.8953 39.6768 18.0876 39.7117 18.2653 39.781C18.443 39.8502 18.6021 39.9522 18.7321 40.0802L26.4718 46.042C26.6276 46.1639 26.8165 46.2477 27.0198 46.2853L37.3623 48.597C37.7103 48.6761 38.0094 48.8735 38.1952 49.1466C38.3809 49.4197 38.4385 49.7466 38.3554 50.0571Z"/>
</mask>
<path d="M83.5268 18.2102L75.1021 3.8836C74.6047 3.0345 73.7516 2.39292 72.7267 2.09707C71.7018 1.80122 70.5871 1.87478 69.6227 2.3019L61.3692 5.9824H55.1363L43.5609 1.32855C42.669 0.965864 41.6598 0.901065 40.7184 1.14605L23.5266 5.58697L15.3759 1.96731C14.4114 1.54019 13.2967 1.46663 12.2718 1.76248C11.2469 2.05833 10.3938 2.69991 9.8964 3.54901L1.47172 17.8756C1.21744 18.3075 1.06228 18.7799 1.01525 19.2656C0.968216 19.7512 1.03025 20.2402 1.19774 20.7044C1.55416 21.6293 2.304 22.3935 3.28679 22.8336L11.643 26.5445L30.2389 39.4718C30.7011 39.7783 31.2238 40.0053 31.78 40.141L51.6089 44.5211C51.9315 44.6043 52.2661 44.6453 52.602 44.6428C53.143 44.6491 53.6799 44.558 54.1802 44.375C54.6805 44.1921 55.1339 43.921 55.513 43.5782L68.1158 32.3846L68.1843 32.3238L73.4925 26.8182L81.7117 23.1682C82.2029 22.9481 82.6402 22.644 82.9987 22.2734C83.3572 21.9028 83.6298 21.4729 83.8008 21.0085C83.9693 20.5497 84.0319 20.0654 83.9848 19.5846C83.9377 19.1037 83.782 18.6363 83.5268 18.2102ZM66.9514 29.8904L52.9103 20.7956C52.6695 20.642 52.379 20.5619 52.0826 20.5674C51.7862 20.5729 51.4998 20.6637 51.2664 20.826L46.8828 23.7461C45.2186 24.8425 43.2015 25.4344 41.1294 25.4344C39.0573 25.4344 37.0402 24.8425 35.3759 23.7461L33.5266 22.499C33.3644 22.3999 33.2304 22.2686 33.1353 22.1154C33.0402 21.9623 32.9866 21.7916 32.9787 21.6169C32.9568 21.442 32.9827 21.2649 33.0543 21.1008C33.1258 20.9366 33.2409 20.7902 33.3896 20.674L46.7801 8.75037C47.0405 8.53496 47.3832 8.41537 47.739 8.41578H60.8555L70.9925 25.6624L66.9514 29.8904ZM3.83474 19.9439C3.76852 19.7918 3.74035 19.6286 3.75217 19.4658C3.764 19.303 3.81554 19.1444 3.90323 19.001L12.3279 4.67445C12.4444 4.47532 12.622 4.3096 12.8402 4.19653C13.0585 4.08347 13.3083 4.0277 13.5608 4.03569C13.7636 4.02907 13.9648 4.0711 14.143 4.15736L21.4718 7.38159L11.78 23.8678L4.51967 20.6435C4.3535 20.5803 4.20557 20.4846 4.08696 20.3634C3.96835 20.2423 3.88212 20.0989 3.83474 19.9439ZM53.5952 41.8444C53.4259 41.9908 53.2186 42.0979 52.9916 42.1563C52.7647 42.2147 52.525 42.2224 52.2938 42.179L32.4307 37.7685C32.2476 37.7228 32.0741 37.6509 31.917 37.5556L14.1087 25.1757L24.2458 7.92911L41.4719 3.48818C41.7889 3.40204 42.1307 3.42373 42.4308 3.54901L48.4924 5.9824H47.739C47.1986 5.97955 46.6629 6.0722 46.1631 6.25497C45.6634 6.43774 45.2095 6.70698 44.828 7.047L31.4376 18.9402C31.0206 19.3103 30.6982 19.7558 30.4923 20.2463C30.2863 20.7369 30.2015 21.2611 30.2437 21.7833C30.286 22.3055 30.4542 22.8136 30.737 23.2729C31.0198 23.7323 31.4106 24.1323 31.8828 24.4457L33.7321 25.6928C35.8728 27.1005 38.4659 27.8603 41.1294 27.8603C43.7929 27.8603 46.386 27.1005 48.5267 25.6928L52.0883 23.2898L65.0678 31.6546L53.5952 41.8444ZM81.1638 20.2785C81.1102 20.4308 81.0216 20.5716 80.9037 20.692C80.7859 20.8124 80.6412 20.9098 80.4789 20.9781L73.2186 24.2024L63.5267 7.71618L70.8555 4.49195C71.1744 4.35194 71.5422 4.32761 71.8809 4.42412C72.2197 4.52062 72.5029 4.73039 72.6706 5.00904L81.0953 19.3356C81.183 19.479 81.2345 19.6375 81.2464 19.8004C81.2582 19.9632 81.23 20.1263 81.1638 20.2785ZM38.3554 50.0571C38.2803 50.3227 38.1087 50.559 37.8673 50.7294C37.6259 50.8998 37.3281 50.9949 37.0198 51L36.6773 50.9392L26.3691 48.6579C25.7357 48.5187 25.1487 48.2476 24.6567 47.867L16.9512 41.9052C16.7901 41.8091 16.6538 41.6838 16.5514 41.5374C16.449 41.391 16.3827 41.2269 16.357 41.0561C16.3314 40.8853 16.3468 40.7115 16.4025 40.5464C16.4581 40.3813 16.5526 40.2285 16.6797 40.0983C16.8068 39.968 16.9636 39.8632 17.1397 39.7909C17.3158 39.7185 17.5072 39.6802 17.7013 39.6785C17.8953 39.6768 18.0876 39.7117 18.2653 39.781C18.443 39.8502 18.6021 39.9522 18.7321 40.0802L26.4718 46.042C26.6276 46.1639 26.8165 46.2477 27.0198 46.2853L37.3623 48.597C37.7103 48.6761 38.0094 48.8735 38.1952 49.1466C38.3809 49.4197 38.4385 49.7466 38.3554 50.0571Z" fill="#219653"/>
<path d="M83.5268 18.2102L75.1021 3.8836C74.6047 3.0345 73.7516 2.39292 72.7267 2.09707C71.7018 1.80122 70.5871 1.87478 69.6227 2.3019L61.3692 5.9824H55.1363L43.5609 1.32855C42.669 0.965864 41.6598 0.901065 40.7184 1.14605L23.5266 5.58697L15.3759 1.96731C14.4114 1.54019 13.2967 1.46663 12.2718 1.76248C11.2469 2.05833 10.3938 2.69991 9.8964 3.54901L1.47172 17.8756C1.21744 18.3075 1.06228 18.7799 1.01525 19.2656C0.968216 19.7512 1.03025 20.2402 1.19774 20.7044C1.55416 21.6293 2.304 22.3935 3.28679 22.8336L11.643 26.5445L30.2389 39.4718C30.7011 39.7783 31.2238 40.0053 31.78 40.141L51.6089 44.5211C51.9315 44.6043 52.2661 44.6453 52.602 44.6428C53.143 44.6491 53.6799 44.558 54.1802 44.375C54.6805 44.1921 55.1339 43.921 55.513 43.5782L68.1158 32.3846L68.1843 32.3238L73.4925 26.8182L81.7117 23.1682C82.2029 22.9481 82.6402 22.644 82.9987 22.2734C83.3572 21.9028 83.6298 21.4729 83.8008 21.0085C83.9693 20.5497 84.0319 20.0654 83.9848 19.5846C83.9377 19.1037 83.782 18.6363 83.5268 18.2102ZM66.9514 29.8904L52.9103 20.7956C52.6695 20.642 52.379 20.5619 52.0826 20.5674C51.7862 20.5729 51.4998 20.6637 51.2664 20.826L46.8828 23.7461C45.2186 24.8425 43.2015 25.4344 41.1294 25.4344C39.0573 25.4344 37.0402 24.8425 35.3759 23.7461L33.5266 22.499C33.3644 22.3999 33.2304 22.2686 33.1353 22.1154C33.0402 21.9623 32.9866 21.7916 32.9787 21.6169C32.9568 21.442 32.9827 21.2649 33.0543 21.1008C33.1258 20.9366 33.2409 20.7902 33.3896 20.674L46.7801 8.75037C47.0405 8.53496 47.3832 8.41537 47.739 8.41578H60.8555L70.9925 25.6624L66.9514 29.8904ZM3.83474 19.9439C3.76852 19.7918 3.74035 19.6286 3.75217 19.4658C3.764 19.303 3.81554 19.1444 3.90323 19.001L12.3279 4.67445C12.4444 4.47532 12.622 4.3096 12.8402 4.19653C13.0585 4.08347 13.3083 4.0277 13.5608 4.03569C13.7636 4.02907 13.9648 4.0711 14.143 4.15736L21.4718 7.38159L11.78 23.8678L4.51967 20.6435C4.3535 20.5803 4.20557 20.4846 4.08696 20.3634C3.96835 20.2423 3.88212 20.0989 3.83474 19.9439ZM53.5952 41.8444C53.4259 41.9908 53.2186 42.0979 52.9916 42.1563C52.7647 42.2147 52.525 42.2224 52.2938 42.179L32.4307 37.7685C32.2476 37.7228 32.0741 37.6509 31.917 37.5556L14.1087 25.1757L24.2458 7.92911L41.4719 3.48818C41.7889 3.40204 42.1307 3.42373 42.4308 3.54901L48.4924 5.9824H47.739C47.1986 5.97955 46.6629 6.0722 46.1631 6.25497C45.6634 6.43774 45.2095 6.70698 44.828 7.047L31.4376 18.9402C31.0206 19.3103 30.6982 19.7558 30.4923 20.2463C30.2863 20.7369 30.2015 21.2611 30.2437 21.7833C30.286 22.3055 30.4542 22.8136 30.737 23.2729C31.0198 23.7323 31.4106 24.1323 31.8828 24.4457L33.7321 25.6928C35.8728 27.1005 38.4659 27.8603 41.1294 27.8603C43.7929 27.8603 46.386 27.1005 48.5267 25.6928L52.0883 23.2898L65.0678 31.6546L53.5952 41.8444ZM81.1638 20.2785C81.1102 20.4308 81.0216 20.5716 80.9037 20.692C80.7859 20.8124 80.6412 20.9098 80.4789 20.9781L73.2186 24.2024L63.5267 7.71618L70.8555 4.49195C71.1744 4.35194 71.5422 4.32761 71.8809 4.42412C72.2197 4.52062 72.5029 4.73039 72.6706 5.00904L81.0953 19.3356C81.183 19.479 81.2345 19.6375 81.2464 19.8004C81.2582 19.9632 81.23 20.1263 81.1638 20.2785ZM38.3554 50.0571C38.2803 50.3227 38.1087 50.559 37.8673 50.7294C37.6259 50.8998 37.3281 50.9949 37.0198 51L36.6773 50.9392L26.3691 48.6579C25.7357 48.5187 25.1487 48.2476 24.6567 47.867L16.9512 41.9052C16.7901 41.8091 16.6538 41.6838 16.5514 41.5374C16.449 41.391 16.3827 41.2269 16.357 41.0561C16.3314 40.8853 16.3468 40.7115 16.4025 40.5464C16.4581 40.3813 16.5526 40.2285 16.6797 40.0983C16.8068 39.968 16.9636 39.8632 17.1397 39.7909C17.3158 39.7185 17.5072 39.6802 17.7013 39.6785C17.8953 39.6768 18.0876 39.7117 18.2653 39.781C18.443 39.8502 18.6021 39.9522 18.7321 40.0802L26.4718 46.042C26.6276 46.1639 26.8165 46.2477 27.0198 46.2853L37.3623 48.597C37.7103 48.6761 38.0094 48.8735 38.1952 49.1466C38.3809 49.4197 38.4385 49.7466 38.3554 50.0571Z" stroke="#219653" stroke-width="2" mask="url(#path-1-outside-1_1_203)"/>
</svg>
