<svg width="66" height="64" viewBox="0 0 66 64" fill="none" xmlns="http://www.w3.org/2000/svg">
<path d="M18 32.0202L30.8571 42.3845L48 21.6558M33 61.0404C29.0603 61.0404 25.1593 60.2898 21.5195 58.8314C17.8797 57.3729 14.5726 55.2353 11.7868 52.5406C9.00104 49.8458 6.79126 46.6466 5.28361 43.1257C3.77597 39.6048 3 35.8312 3 32.0202C3 28.2092 3.77597 24.4355 5.28361 20.9146C6.79126 17.3938 9.00104 14.1946 11.7868 11.4998C14.5726 8.80504 17.8797 6.66743 21.5195 5.20903C25.1593 3.75063 29.0603 3 33 3C40.9565 3 48.5871 6.05748 54.2132 11.4998C59.8393 16.9422 63 24.3236 63 32.0202C63 39.7168 59.8393 47.0982 54.2132 52.5406C48.5871 57.9829 40.9565 61.0404 33 61.0404Z" stroke="#219653" stroke-width="5"/>
</svg>
